<?xml version="1.0" encoding="utf-8"?>
<!-- Generator: Adobe Illustrator 16.0.0, SVG Export Plug-In . SVG Version: 6.00 Build 0)  -->
<!DOCTYPE svg PUBLIC "-//W3C//DTD SVG 1.1//EN" "http://www.w3.org/Graphics/SVG/1.1/DTD/svg11.dtd">
<svg version="1.1" id="Layer_1" xmlns="http://www.w3.org/2000/svg" xmlns:xlink="http://www.w3.org/1999/xlink" x="0px" y="0px"
	 width="24px" height="24px" viewBox="0 0 24 24" enable-background="new 0 0 24 24" xml:space="preserve">
<g>
	<path d="M21.9,17.6h-4.6c0,0,0,0,0,0c0,0,0,0-0.1,0c-0.8,0-1.4-0.6-1.4-1.4v-1c0.7-0.6,1.1-1.5,1.1-2.5V8.8
		c0.5-0.2,0.8-0.5,0.8-0.9c0-0.1-0.1-0.3-0.2-0.4c0.6-0.4,0.7-0.9,0.7-1.2c0-1.4-2.9-5.1-6.4-5.1S5.5,4.9,5.5,6.3
		c0,0.3,0.1,0.7,0.7,1.2C6.1,7.6,6.1,7.8,6.1,7.9c0,0.4,0.3,0.7,0.8,0.9v3.9c0,1,0.4,1.9,1.1,2.5v1c0,0.8-0.6,1.4-1.4,1.4
		c0,0,0,0-0.1,0c0,0,0,0-0.1,0H1.8c-0.2,0-0.4,0.2-0.4,0.5v4.3c0,0.2,0.2,0.5,0.4,0.5h20.1c0.3,0,0.5-0.2,0.5-0.5v-4.3
		C22.4,17.8,22.2,17.6,21.9,17.6z M10.4,3.5c0-0.3,0.2-0.5,0.5-0.5h2c0.3,0,0.5,0.2,0.5,0.5v1.2c0,0.8-0.7,1.5-1.5,1.5
		s-1.5-0.7-1.5-1.5V3.5z M7.1,7.8C7.1,7.8,7.2,7.8,7.1,7.8c0.4-0.2,0.9-0.3,1.7-0.5c0,0,0,0,0.1,0c0.2,0,0.4-0.1,0.5-0.1
		c0.1,0,0.1,0,0.1,0c0.2,0,0.4,0,0.6,0c0.1,0,0.2,0,0.3,0c0.1,0,0.3,0,0.5,0c0.3,0,0.6,0,0.9,0c0.3,0,0.6,0,0.9,0c0.2,0,0.3,0,0.5,0
		c0.1,0,0.2,0,0.3,0c0.2,0,0.4,0,0.5,0c0.1,0,0.1,0,0.2,0c0.2,0,0.4,0.1,0.6,0.1c0,0,0,0,0.1,0c0.8,0.1,1.4,0.3,1.7,0.5c0,0,0,0,0,0
		c0.1,0,0.1,0,0.1,0.1c-0.4,0.3-2.1,0.8-4.9,0.8C9.1,8.7,7.4,8.2,7,7.9C7,7.9,7.1,7.9,7.1,7.8z M7.7,12.7V9.1
		c1.6,0.4,3.8,0.4,4.1,0.4c0.4,0,2.6,0,4.2-0.4v3.6c0,1.4-1.2,2.6-2.6,2.6h-3.2C8.9,15.3,7.7,14.1,7.7,12.7z M15,16.9L11.9,18
		l-3.2-1.2c0.1-0.2,0.1-0.4,0.1-0.7v-0.3c0.5,0.2,1,0.3,1.5,0.3h3.2c0.5,0,1-0.1,1.5-0.3v0.3C14.9,16.4,15,16.7,15,16.9z M10.4,19.9
		l-3.2-1.5C7.6,18.3,8,18,8.3,17.7l2.9,1.1L10.4,19.9z M11.9,21.6c-0.3,0-0.6-0.3-0.6-0.6s0.3-0.6,0.6-0.6c0.4,0,0.6,0.3,0.6,0.6
		S12.2,21.6,11.9,21.6z M13.3,19.9l-0.8-1.1l2.9-1.1c0.3,0.3,0.6,0.6,1,0.7L13.3,19.9z"/>
	<path d="M9.7,11.5h0.6c0.3,0,0.5-0.2,0.5-0.5c0-0.3-0.2-0.5-0.5-0.5H9.7c-0.3,0-0.5,0.2-0.5,0.5C9.3,11.3,9.5,11.5,9.7,11.5z"/>
	<path d="M13.5,11.5H14c0.2,0,0.4-0.2,0.4-0.5c0-0.3-0.2-0.5-0.4-0.5h-0.6c-0.2,0-0.4,0.2-0.4,0.5C13,11.3,13.2,11.5,13.5,11.5z"/>
</g>
</svg>
